<?xml version="1.0" encoding="utf-8"?>
<!-- Svg Vector Icons : http://www.onlinewebfonts.com/icon -->
<!DOCTYPE svg PUBLIC "-//W3C//DTD SVG 1.1//EN" "http://www.w3.org/Graphics/SVG/1.1/DTD/svg11.dtd">
<svg version="1.1" xmlns="http://www.w3.org/2000/svg" xmlns:xlink="http://www.w3.org/1999/xlink" x="0px" y="0px" viewBox="0 0 1000 1000" enable-background="new 0 0 1000 1000" xml:space="preserve">
<metadata> Svg Vector Icons : http://www.onlinewebfonts.com/icon </metadata>
<g><path d="M751.3,308.3c17.6-12.5,34.4-26.4,49.8-41.8c32.3-32.3,54-72.1,60.9-112.1c7.6-43.8-3.6-84.4-30.6-111.5c-21.6-21.6-50.8-33-84.6-33c-48.1,0-98.7,23.1-138.9,63.3C543.5,137.7,506,226.5,485.8,289.9c-15-63.7-44.7-149.7-102.7-207.7c-31.1-31.1-70.8-47-108.3-47c-30.7,0-59.8,10.7-81.6,32.4c-48.4,48.4-41.9,133.4,14.6,189.9c20.1,20.1,43.7,36.9,68.5,50.8H66.2v247.9h62V990h743.7V556.2h62V308.3H751.3z M657.2,122.6c26.8-26.8,60.3-42.9,89.6-42.9c10.4,0,24.9,2.2,35.3,12.6c25.2,25.2,11.1,83.6-30.3,124.9c-42.6,42.6-99.8,71.8-149.5,91.1h-49.1C571.2,252.6,603.6,176.2,657.2,122.6z M230.7,154.2c-0.7-8.8,0-25.4,11.8-37.3c9.9-9.9,23-12,32.3-12l0,0c20.6,0,42.1,9.7,59,26.6c32.8,32.8,59.8,85,78.1,150.9c0.5,1.8,1,3.6,1.4,5.3c-1.8-0.5-3.5-1-5.3-1.4C342.1,268.1,290,241,257.2,208.2C241.8,192.9,232.2,173.2,230.7,154.2z M438,928H190.1V525.2H438V928z M438,494.2H128.2V370.3H438V494.2z M809.9,928H562V525.2h247.9V928z M871.8,494.2H562V370.3h309.9V494.2z"/></g>
</svg>